<mxfile host="app.diagrams.net" modified="2021-09-23T13:46:05.036Z" agent="5.0 (Windows NT 10.0; Win64; x64) AppleWebKit/537.36 (KHTML, like Gecko) Chrome/93.0.4577.82 Safari/537.36" etag="NLrLUdF5l5oiHZ8FDH28" version="15.2.9" type="github">
  <diagram id="UPn27FwMhSwaFrOdYIV2" name="Page-1">
    <mxGraphModel dx="834" dy="446" grid="1" gridSize="10" guides="1" tooltips="1" connect="1" arrows="1" fold="1" page="1" pageScale="1" pageWidth="1169" pageHeight="1654" math="0" shadow="0">
      <root>
        <mxCell id="0" />
        <mxCell id="1" parent="0" />
        <mxCell id="CdOk1dQUQj-y5VEX96Gy-9" value="Product" style="swimlane;fontStyle=1;align=center;verticalAlign=top;childLayout=stackLayout;horizontal=1;startSize=26;horizontalStack=0;resizeParent=1;resizeParentMax=0;resizeLast=0;collapsible=1;marginBottom=0;" vertex="1" parent="1">
          <mxGeometry x="50" y="440" width="190" height="220" as="geometry" />
        </mxCell>
        <mxCell id="CdOk1dQUQj-y5VEX96Gy-10" value="+ id: int&#xa;+ name: String&#xa;+ category: String&#xa;+ salesPrice: float&#xa;+ costPrice : float&#xa;+ quantity: int&#xa;+ isAvailable: Boolean" style="text;strokeColor=none;fillColor=none;align=left;verticalAlign=top;spacingLeft=4;spacingRight=4;overflow=hidden;rotatable=0;points=[[0,0.5],[1,0.5]];portConstraint=eastwest;" vertex="1" parent="CdOk1dQUQj-y5VEX96Gy-9">
          <mxGeometry y="26" width="190" height="114" as="geometry" />
        </mxCell>
        <mxCell id="CdOk1dQUQj-y5VEX96Gy-11" value="" style="line;strokeWidth=1;fillColor=none;align=left;verticalAlign=middle;spacingTop=-1;spacingLeft=3;spacingRight=3;rotatable=0;labelPosition=right;points=[];portConstraint=eastwest;" vertex="1" parent="CdOk1dQUQj-y5VEX96Gy-9">
          <mxGeometry y="140" width="190" height="8" as="geometry" />
        </mxCell>
        <mxCell id="CdOk1dQUQj-y5VEX96Gy-12" value="+ getProfitorLoss():float&#xa;+ activate(): void&#xa;+ deactivate(): void&#xa;+ isBelowThreshold(): boolean&#xa;" style="text;strokeColor=none;fillColor=none;align=left;verticalAlign=top;spacingLeft=4;spacingRight=4;overflow=hidden;rotatable=0;points=[[0,0.5],[1,0.5]];portConstraint=eastwest;" vertex="1" parent="CdOk1dQUQj-y5VEX96Gy-9">
          <mxGeometry y="148" width="190" height="72" as="geometry" />
        </mxCell>
        <mxCell id="CdOk1dQUQj-y5VEX96Gy-13" value="Order" style="swimlane;fontStyle=1;align=center;verticalAlign=top;childLayout=stackLayout;horizontal=1;startSize=26;horizontalStack=0;resizeParent=1;resizeParentMax=0;resizeLast=0;collapsible=1;marginBottom=0;" vertex="1" parent="1">
          <mxGeometry x="390" y="330" width="190" height="200" as="geometry" />
        </mxCell>
        <mxCell id="CdOk1dQUQj-y5VEX96Gy-14" value="+ id: int&#xa;+ vendor : Vendor&#xa;+ date: String&#xa;+ orderedProduct: Product&#xa;+ orderedQuantity: int&#xa;+amountPaid: float" style="text;strokeColor=none;fillColor=none;align=left;verticalAlign=top;spacingLeft=4;spacingRight=4;overflow=hidden;rotatable=0;points=[[0,0.5],[1,0.5]];portConstraint=eastwest;" vertex="1" parent="CdOk1dQUQj-y5VEX96Gy-13">
          <mxGeometry y="26" width="190" height="104" as="geometry" />
        </mxCell>
        <mxCell id="CdOk1dQUQj-y5VEX96Gy-15" value="" style="line;strokeWidth=1;fillColor=none;align=left;verticalAlign=middle;spacingTop=-1;spacingLeft=3;spacingRight=3;rotatable=0;labelPosition=right;points=[];portConstraint=eastwest;" vertex="1" parent="CdOk1dQUQj-y5VEX96Gy-13">
          <mxGeometry y="130" width="190" height="8" as="geometry" />
        </mxCell>
        <mxCell id="CdOk1dQUQj-y5VEX96Gy-16" value="- updateVendorCredit(): void" style="text;strokeColor=none;fillColor=none;align=left;verticalAlign=top;spacingLeft=4;spacingRight=4;overflow=hidden;rotatable=0;points=[[0,0.5],[1,0.5]];portConstraint=eastwest;" vertex="1" parent="CdOk1dQUQj-y5VEX96Gy-13">
          <mxGeometry y="138" width="190" height="62" as="geometry" />
        </mxCell>
        <mxCell id="CdOk1dQUQj-y5VEX96Gy-17" value="BusinessPartner" style="swimlane;fontStyle=1;align=center;verticalAlign=top;childLayout=stackLayout;horizontal=1;startSize=26;horizontalStack=0;resizeParent=1;resizeParentMax=0;resizeLast=0;collapsible=1;marginBottom=0;" vertex="1" parent="1">
          <mxGeometry x="870" y="110" width="290" height="220" as="geometry" />
        </mxCell>
        <mxCell id="CdOk1dQUQj-y5VEX96Gy-18" value="+ Id: Int&#xa;+ contactName: String&#xa;+ contactPhone: String&#xa;+ contactEmail: String&#xa;+ addressStreet: String&#xa;+ addressCity: String&#xa;+ addressState: String&#xa;&#xa;" style="text;strokeColor=none;fillColor=none;align=left;verticalAlign=top;spacingLeft=4;spacingRight=4;overflow=hidden;rotatable=0;points=[[0,0.5],[1,0.5]];portConstraint=eastwest;" vertex="1" parent="CdOk1dQUQj-y5VEX96Gy-17">
          <mxGeometry y="26" width="290" height="114" as="geometry" />
        </mxCell>
        <mxCell id="CdOk1dQUQj-y5VEX96Gy-19" value="" style="line;strokeWidth=1;fillColor=none;align=left;verticalAlign=middle;spacingTop=-1;spacingLeft=3;spacingRight=3;rotatable=0;labelPosition=right;points=[];portConstraint=eastwest;" vertex="1" parent="CdOk1dQUQj-y5VEX96Gy-17">
          <mxGeometry y="140" width="290" height="8" as="geometry" />
        </mxCell>
        <mxCell id="CdOk1dQUQj-y5VEX96Gy-20" value="+ getContact Details(): String&#xa;+ getAddressDetails(): String&#xa;+ updateContact Details(contactDetail: String): void&#xa;+ updateAddressDetails(addressDetail: String): void&#xa;" style="text;strokeColor=none;fillColor=none;align=left;verticalAlign=top;spacingLeft=4;spacingRight=4;overflow=hidden;rotatable=0;points=[[0,0.5],[1,0.5]];portConstraint=eastwest;" vertex="1" parent="CdOk1dQUQj-y5VEX96Gy-17">
          <mxGeometry y="148" width="290" height="72" as="geometry" />
        </mxCell>
        <mxCell id="CdOk1dQUQj-y5VEX96Gy-23" value="Vendor" style="swimlane;fontStyle=1;align=center;verticalAlign=top;childLayout=stackLayout;horizontal=1;startSize=26;horizontalStack=0;resizeParent=1;resizeParentMax=0;resizeLast=0;collapsible=1;marginBottom=0;" vertex="1" parent="1">
          <mxGeometry x="710" y="440" width="260" height="168" as="geometry" />
        </mxCell>
        <mxCell id="CdOk1dQUQj-y5VEX96Gy-24" value="+ vendorName: String&#xa;+ credit: float&#xa;+ products: Product [0..100]&#xa;+ orders: Order [0..100]" style="text;strokeColor=none;fillColor=none;align=left;verticalAlign=top;spacingLeft=4;spacingRight=4;overflow=hidden;rotatable=0;points=[[0,0.5],[1,0.5]];portConstraint=eastwest;" vertex="1" parent="CdOk1dQUQj-y5VEX96Gy-23">
          <mxGeometry y="26" width="260" height="74" as="geometry" />
        </mxCell>
        <mxCell id="CdOk1dQUQj-y5VEX96Gy-25" value="" style="line;strokeWidth=1;fillColor=none;align=left;verticalAlign=middle;spacingTop=-1;spacingLeft=3;spacingRight=3;rotatable=0;labelPosition=right;points=[];portConstraint=eastwest;" vertex="1" parent="CdOk1dQUQj-y5VEX96Gy-23">
          <mxGeometry y="100" width="260" height="8" as="geometry" />
        </mxCell>
        <mxCell id="CdOk1dQUQj-y5VEX96Gy-26" value="+ checkDue(): float&#xa;+ fetchProductById(id: int): Product&#xa;+ fetchProductByName(name: String): Product" style="text;strokeColor=none;fillColor=none;align=left;verticalAlign=top;spacingLeft=4;spacingRight=4;overflow=hidden;rotatable=0;points=[[0,0.5],[1,0.5]];portConstraint=eastwest;" vertex="1" parent="CdOk1dQUQj-y5VEX96Gy-23">
          <mxGeometry y="108" width="260" height="60" as="geometry" />
        </mxCell>
        <mxCell id="CdOk1dQUQj-y5VEX96Gy-27" value="Customer" style="swimlane;fontStyle=1;align=center;verticalAlign=top;childLayout=stackLayout;horizontal=1;startSize=26;horizontalStack=0;resizeParent=1;resizeParentMax=0;resizeLast=0;collapsible=1;marginBottom=0;" vertex="1" parent="1">
          <mxGeometry x="1030" y="440" width="160" height="100" as="geometry" />
        </mxCell>
        <mxCell id="CdOk1dQUQj-y5VEX96Gy-28" value="+ transactionCount: int" style="text;strokeColor=none;fillColor=none;align=left;verticalAlign=top;spacingLeft=4;spacingRight=4;overflow=hidden;rotatable=0;points=[[0,0.5],[1,0.5]];portConstraint=eastwest;" vertex="1" parent="CdOk1dQUQj-y5VEX96Gy-27">
          <mxGeometry y="26" width="160" height="26" as="geometry" />
        </mxCell>
        <mxCell id="CdOk1dQUQj-y5VEX96Gy-29" value="" style="line;strokeWidth=1;fillColor=none;align=left;verticalAlign=middle;spacingTop=-1;spacingLeft=3;spacingRight=3;rotatable=0;labelPosition=right;points=[];portConstraint=eastwest;" vertex="1" parent="CdOk1dQUQj-y5VEX96Gy-27">
          <mxGeometry y="52" width="160" height="8" as="geometry" />
        </mxCell>
        <mxCell id="CdOk1dQUQj-y5VEX96Gy-30" value="+ getTransactionCount(); int&#xa;+ calculate Discount(); float" style="text;strokeColor=none;fillColor=none;align=left;verticalAlign=top;spacingLeft=4;spacingRight=4;overflow=hidden;rotatable=0;points=[[0,0.5],[1,0.5]];portConstraint=eastwest;" vertex="1" parent="CdOk1dQUQj-y5VEX96Gy-27">
          <mxGeometry y="60" width="160" height="40" as="geometry" />
        </mxCell>
      </root>
    </mxGraphModel>
  </diagram>
</mxfile>
